<svg data-v-4213c516="" version="1.0" xmlns="http://www.w3.org/2000/svg" xmlns:xlink="http://www.w3.org/1999/xlink" width="100%" height="100%" viewBox="0 0 340.000000 250.000000" preserveAspectRatio="xMidYMid meet" color-interpolation-filters="sRGB" class="el-tooltip" style="margin: auto;"><rect data-v-4213c516="" x="0" y="0" width="100%" height="100%" fill="#fff" fill-opacity="1"></rect> <rect data-v-4213c516="" x="0" y="0" width="100%" height="100%" fill="url(#watermark)" fill-opacity="1" class="watermarklayer"></rect> <g data-v-4213c516="" fill="#55b7d9" class="icon-text-wrapper icon-svg-group iconsvg" transform="translate(117.77499771118164,58.65593719482422)"><g fill="#55b7d9" class="iconsvg-imagesvg" transform="translate(22.22500228881836,0)"><rect fill="#55b7d9" fill-opacity="0" stroke-width="2" x="0" y="0" width="60" height="60" class="image-rect"></rect> <svg viewBox="0 0 60 60" x="0" y="0" width="60" height="60" hollow-target="iconBnOutline" class="image-svg-svg"><g mask="url(#7058fc90-38e5-408d-842c-8282f32ae69d)"><svg xmlns="http://www.w3.org/2000/svg" xmlns:xlink="http://www.w3.org/1999/xlink" xml:space="preserve" version="1.1" style="shape-rendering:geometricPrecision;text-rendering:geometricPrecision;image-rendering:optimizeQuality;" viewBox="0 0 249 249" x="0" y="0" fill-rule="evenodd" clip-rule="evenodd" width="60" height="60" filtersec="colorsb1404798026"><defs></defs><g><path class="fil0" d="M125 0c68,0 124,56 124,125 0,68 -56,124 -124,124 -69,0 -125,-56 -125,-124 0,-69 56,-125 125,-125z"></path></g></svg></g> <g><svg xmlns="http://www.w3.org/2000/svg" viewBox="0 0.0030921055004000664 58.45000457763672 34.50752258300781" width="50" height="50" x="5" y="5"><title>资源 6</title><g id="图层_2" data-name="图层 2"><g id="Layer_1" data-name="Layer 1"><path d="M41.93,13.76a2,2,0,0,0-.76-.71L30.45,7.86l-.1-.05a2.9,2.9,0,0,0-2.24,0l-.1.05L17.29,13.05a1.93,1.93,0,0,0-.77.71l12.71,6.15Z" fill="#55b7d9"></path><path d="M29.23,19.91v14.6a2.67,2.67,0,0,0,1.12-.22l.1,0,10.72-5.19a2.16,2.16,0,0,0,1.12-1.78V14.83a2,2,0,0,0-.36-1.07Z" fill="#85e0ff"></path><path d="M16.52,13.76a2,2,0,0,0-.35,1.07V27.27a2.16,2.16,0,0,0,1.12,1.78L28,34.24l.1,0a2.63,2.63,0,0,0,1.12.22V19.91Z" fill="#377da3"></path><path d="M57.34,5.46,46.62.27,46.51.22a3,3,0,0,0-2.23,0l-.11.05L33.46,5.46c-.62.3-.62.78,0,1.08l11.93,5.78L58.1,6.17A2,2,0,0,0,57.34,5.46Z" fill="#55b7d9"></path><path d="M45.39,12.32V26a.72.72,0,0,0,1.12.7l.11-.05,10.72-5.19a2.15,2.15,0,0,0,1.11-1.78V7.24a2,2,0,0,0-.35-1.07Z" fill="#85e0ff"></path><path d="M25,5.46,14.28.27l-.1-.05a3,3,0,0,0-2.24,0l-.1.05L1.12,5.46a1.93,1.93,0,0,0-.77.71l12.71,6.15L25,6.54C25.62,6.24,25.62,5.76,25,5.46Z" fill="#55b7d9"></path><path d="M0,7.24V19.68a2.14,2.14,0,0,0,1.12,1.78l10.72,5.19.1.05a.72.72,0,0,0,1.12-.7V12.32L.35,6.17A2.09,2.09,0,0,0,0,7.24Z" fill="#377da3"></path></g></g></svg></g><mask id="7058fc90-38e5-408d-842c-8282f32ae69d"><g fill="white"><svg xmlns="http://www.w3.org/2000/svg" xmlns:xlink="http://www.w3.org/1999/xlink" xml:space="preserve" version="1.1" style="shape-rendering:geometricPrecision;text-rendering:geometricPrecision;image-rendering:optimizeQuality;" viewBox="0 0 249 249" x="0" y="0" fill-rule="evenodd" clip-rule="evenodd" width="60" height="60" filtersec="colorsb1404798026"><defs></defs><g><path d="M125 0c68,0 124,56 124,125 0,68 -56,124 -124,124 -69,0 -125,-56 -125,-124 0,-69 56,-125 125,-125z"></path></g></svg></g> <g fill="black" filter="url(#519437c4-01bf-4383-9da2-6d4260e3ac18)"><svg xmlns="http://www.w3.org/2000/svg" viewBox="0 0.0030921055004000664 58.45000457763672 34.50752258300781" width="50" height="50" x="5" y="5"><title>资源 6</title><g id="图层_2" data-name="图层 2"><g id="Layer_1" data-name="Layer 1"><path d="M41.93,13.76a2,2,0,0,0-.76-.71L30.45,7.86l-.1-.05a2.9,2.9,0,0,0-2.24,0l-.1.05L17.29,13.05a1.93,1.93,0,0,0-.77.71l12.71,6.15Z"></path><path d="M29.23,19.91v14.6a2.67,2.67,0,0,0,1.12-.22l.1,0,10.72-5.19a2.16,2.16,0,0,0,1.12-1.78V14.83a2,2,0,0,0-.36-1.07Z"></path><path d="M16.52,13.76a2,2,0,0,0-.35,1.07V27.27a2.16,2.16,0,0,0,1.12,1.78L28,34.24l.1,0a2.63,2.63,0,0,0,1.12.22V19.91Z"></path><path d="M57.34,5.46,46.62.27,46.51.22a3,3,0,0,0-2.23,0l-.11.05L33.46,5.46c-.62.3-.62.78,0,1.08l11.93,5.78L58.1,6.17A2,2,0,0,0,57.34,5.46Z"></path><path d="M45.39,12.32V26a.72.72,0,0,0,1.12.7l.11-.05,10.72-5.19a2.15,2.15,0,0,0,1.11-1.78V7.24a2,2,0,0,0-.35-1.07Z"></path><path d="M25,5.46,14.28.27l-.1-.05a3,3,0,0,0-2.24,0l-.1.05L1.12,5.46a1.93,1.93,0,0,0-.77.71l12.71,6.15L25,6.54C25.62,6.24,25.62,5.76,25,5.46Z"></path><path d="M0,7.24V19.68a2.14,2.14,0,0,0,1.12,1.78l10.72,5.19.1.05a.72.72,0,0,0,1.12-.7V12.32L.35,6.17A2.09,2.09,0,0,0,0,7.24Z"></path></g></g></svg></g><defs><filter id="519437c4-01bf-4383-9da2-6d4260e3ac18"><feGaussianBlur in="SourceGraphic" stdDeviation="1.26"></feGaussianBlur><feComponentTransfer><feFuncA type="discrete" tableValues="0 1 1 1 1 1 1 1 1 1 1 1 1 1 0"></feFuncA></feComponentTransfer></filter></defs></mask></svg> <!----></g> <g transform="translate(0,67)" mask="url(#b1723543-ff61-43fd-96a8-d25f07895a50)"><g fill-rule="" class="tp-name iconsvg-namesvg" transform="translate(0,0)"><g><path d="M52.80-28.77L44.49-18.75L52.14 2.04L44 5.61L31.73-29.15L31.73 7.37L17.32 7.37L17.32 0.22L22.93 0.22L22.93-41.20L31.73-41.20L31.73-30.80L38.94-33.77L41.20-27.66L46.70-34.21L52.80-28.77ZM20.18-32.01L20.18-24.36L10.72 5.72L2.42 2.81L11.38-24.36L4.24-24.36L4.24-32.06L20.18-32.01ZM72.82-6.11L72.82-4.57L102.25-4.57L102.25 7.81L64.24 7.81L64.24-15.07L58.19-15.07L58.19-25.52L77.33-25.52L76.94-28.11L82.61-28.66L81.07-29.59L82.11-31.13L76.89-31.13L78.27-28.88L72.44-25.91L69.30-31.13L67.98-31.13L64.41-25.85L58.02-29.59L66.50-42.30L73.15-38.83L72.44-37.73L83.11-37.73L83.11-32.67L89.54-42.30L96.19-38.83L95.48-37.73L106.15-37.73L106.15-31.13L99.94-31.13L101.31-28.88L95.48-25.91L92.34-31.13L91.03-31.13L87.45-25.85L86.02-26.68L86.19-25.52L106.75-25.52L106.87-15.07L100.65-15.07L100.65-6.11L72.82-6.11ZM98.56-19.75L66.44-19.75L66.44-17.77L98.56-17.77L98.56-19.75ZM92.40-11.05L92.40-13.09L72.82-13.09L72.82-11.05L92.40-11.05ZM94.00 0.39L72.82 0.39L72.82 2.37L94.00 2.37L94.00 0.39Z" transform="translate(-2.42, 42.295)"></path></g> <!----> <!----> <!----> <!----> <!----> <!----> <g fill="#55b7d9" transform="translate(107.45000457763672,0)"></g></g> <g fill-rule="" hollow-target="t-name" class="tp-slogan iconsvg-slogansvg" fill="#333333" transform="translate(15.78000259399414,57.11000061035156)"><!----> <!----> <!----> <g><path d="M5.67-7.13L5.63-7.13L3.66 0L2.44 0L0.19-8.58L1.41-8.58L3.05-1.59L3.09-1.59L5.02-8.58L6.28-8.58L8.20-1.59L8.25-1.59L9.84-8.58L11.11-8.58L8.86 0L7.64 0L5.67-7.13ZM17.86 0L17.02-2.48L13.55-2.48L12.66 0L11.48 0L14.72-8.58L16.03-8.58L19.13 0L17.86 0ZM15.28-7.31L13.92-3.52L16.59-3.52L15.33-7.31L15.28-7.31ZM22.36-7.59L19.45-7.59L19.45-8.58L26.39-8.58L26.39-7.59L23.48-7.59L23.48 0L22.36 0L22.36-7.59ZM28.73-1.03L33.89-1.03L33.89 0L27.56 0L27.56-8.58L33.80-8.58L33.80-7.59L28.73-7.59L28.73-4.92L33.42-4.92L33.42-3.89L28.73-3.89L28.73-1.03ZM39.52-3.70L36.70-3.70L36.70 0L35.53 0L35.53-8.58L39.52-8.58Q42.38-8.58 42.38-6.28L42.38-6.28Q42.38-4.88 41.16-4.22L41.16-4.22Q42.19-3.94 42.19-2.58L42.19-2.58L42.28-1.03Q42.23-0.38 42.70-0.19L42.70-0.19L42.70 0L41.25 0Q41.11-0.61 41.06-2.16L41.06-2.16Q41.11-3.70 39.52-3.70L39.52-3.70ZM39.61-7.64L36.70-7.64L36.70-4.69L39.42-4.69Q41.16-4.69 41.16-6.19L41.16-6.19Q41.16-7.64 39.61-7.64L39.61-7.64ZM51-7.64L48.66-7.64L48.66-4.64L50.95-4.64Q52.73-4.64 52.73-6.19L52.73-6.19Q52.73-7.59 51-7.64L51-7.64ZM51.38-3.61L48.66-3.61L48.66 0L47.48 0L47.48-8.58L51.38-8.58Q53.81-8.48 53.91-6.19L53.91-6.19Q53.77-3.70 51.38-3.61L51.38-3.61ZM55.50-8.58L56.67-8.58L56.67 0L55.50 0L55.50-8.58ZM62.30-7.64L59.95-7.64L59.95-4.64L62.25-4.64Q64.03-4.64 64.03-6.19L64.03-6.19Q64.03-7.59 62.30-7.64L62.30-7.64ZM62.67-3.61L59.95-3.61L59.95 0L58.78 0L58.78-8.58L62.67-8.58Q65.11-8.48 65.20-6.19L65.20-6.19Q65.06-3.70 62.67-3.61L62.67-3.61ZM67.92-1.03L73.08-1.03L73.08 0L66.75 0L66.75-8.58L72.98-8.58L72.98-7.59L67.92-7.59L67.92-4.92L72.61-4.92L72.61-3.89L67.92-3.89L67.92-1.03Z" transform="translate(-0.1875, 8.578125)"></path></g></g></g></g><mask id="b1723543-ff61-43fd-96a8-d25f07895a50"><g fill-rule="" class="tp-name iconsvg-namesvg" transform="translate(0,0)" fill="white"><g><path d="M52.80-28.77L44.49-18.75L52.14 2.04L44 5.61L31.73-29.15L31.73 7.37L17.32 7.37L17.32 0.22L22.93 0.22L22.93-41.20L31.73-41.20L31.73-30.80L38.94-33.77L41.20-27.66L46.70-34.21L52.80-28.77ZM20.18-32.01L20.18-24.36L10.72 5.72L2.42 2.81L11.38-24.36L4.24-24.36L4.24-32.06L20.18-32.01ZM72.82-6.11L72.82-4.57L102.25-4.57L102.25 7.81L64.24 7.81L64.24-15.07L58.19-15.07L58.19-25.52L77.33-25.52L76.94-28.11L82.61-28.66L81.07-29.59L82.11-31.13L76.89-31.13L78.27-28.88L72.44-25.91L69.30-31.13L67.98-31.13L64.41-25.85L58.02-29.59L66.50-42.30L73.15-38.83L72.44-37.73L83.11-37.73L83.11-32.67L89.54-42.30L96.19-38.83L95.48-37.73L106.15-37.73L106.15-31.13L99.94-31.13L101.31-28.88L95.48-25.91L92.34-31.13L91.03-31.13L87.45-25.85L86.02-26.68L86.19-25.52L106.75-25.52L106.87-15.07L100.65-15.07L100.65-6.11L72.82-6.11ZM98.56-19.75L66.44-19.75L66.44-17.77L98.56-17.77L98.56-19.75ZM92.40-11.05L92.40-13.09L72.82-13.09L72.82-11.05L92.40-11.05ZM94.00 0.39L72.82 0.39L72.82 2.37L94.00 2.37L94.00 0.39Z" transform="translate(-2.42, 42.295)"></path></g>       <g transform="translate(107.45000457763672,0)"></g></g> <rect fill="#000" x="0" y="0" width="76.88999938964844" height="12.579999923706055" transform="translate(13.78000259399414, 55.11000061035156)"></rect><g fill-rule="" hollow-target="t-name" class="tp-slogan iconsvg-slogansvg" transform="translate(15.78000259399414,57.11000061035156)" fill="#fff">   <g><path d="M5.67-7.13L5.63-7.13L3.66 0L2.44 0L0.19-8.58L1.41-8.58L3.05-1.59L3.09-1.59L5.02-8.58L6.28-8.58L8.20-1.59L8.25-1.59L9.84-8.58L11.11-8.58L8.86 0L7.64 0L5.67-7.13ZM17.86 0L17.02-2.48L13.55-2.48L12.66 0L11.48 0L14.72-8.58L16.03-8.58L19.13 0L17.86 0ZM15.28-7.31L13.92-3.52L16.59-3.52L15.33-7.31L15.28-7.31ZM22.36-7.59L19.45-7.59L19.45-8.58L26.39-8.58L26.39-7.59L23.48-7.59L23.48 0L22.36 0L22.36-7.59ZM28.73-1.03L33.89-1.03L33.89 0L27.56 0L27.56-8.58L33.80-8.58L33.80-7.59L28.73-7.59L28.73-4.92L33.42-4.92L33.42-3.89L28.73-3.89L28.73-1.03ZM39.52-3.70L36.70-3.70L36.70 0L35.53 0L35.53-8.58L39.52-8.58Q42.38-8.58 42.38-6.28L42.38-6.28Q42.38-4.88 41.16-4.22L41.16-4.22Q42.19-3.94 42.19-2.58L42.19-2.58L42.28-1.03Q42.23-0.38 42.70-0.19L42.70-0.19L42.70 0L41.25 0Q41.11-0.61 41.06-2.16L41.06-2.16Q41.11-3.70 39.52-3.70L39.52-3.70ZM39.61-7.64L36.70-7.64L36.70-4.69L39.42-4.69Q41.16-4.69 41.16-6.19L41.16-6.19Q41.16-7.64 39.61-7.64L39.61-7.64ZM51-7.64L48.66-7.64L48.66-4.64L50.95-4.64Q52.73-4.64 52.73-6.19L52.73-6.19Q52.73-7.59 51-7.64L51-7.64ZM51.38-3.61L48.66-3.61L48.66 0L47.48 0L47.48-8.58L51.38-8.58Q53.81-8.48 53.91-6.19L53.91-6.19Q53.77-3.70 51.38-3.61L51.38-3.61ZM55.50-8.58L56.67-8.58L56.67 0L55.50 0L55.50-8.58ZM62.30-7.64L59.95-7.64L59.95-4.64L62.25-4.64Q64.03-4.64 64.03-6.19L64.03-6.19Q64.03-7.59 62.30-7.64L62.30-7.64ZM62.67-3.61L59.95-3.61L59.95 0L58.78 0L58.78-8.58L62.67-8.58Q65.11-8.48 65.20-6.19L65.20-6.19Q65.06-3.70 62.67-3.61L62.67-3.61ZM67.92-1.03L73.08-1.03L73.08 0L66.75 0L66.75-8.58L72.98-8.58L72.98-7.59L67.92-7.59L67.92-4.92L72.61-4.92L72.61-3.89L67.92-3.89L67.92-1.03Z" transform="translate(-0.1875, 8.578125)"></path></g></g></mask></svg>