<?xml version="1.0" encoding="utf-8"?>

<svg xmlns="http://www.w3.org/2000/svg" viewBox="0.00163475691806525 0.06968235224485397 43.70698928833008 43.64031982421875"><title>pipechess</title><g id="图层_2" data-name="图层 2"><g id="Layer_1" data-name="Layer 1"><path d="M21.85,43.71a4.76,4.76,0,0,1-3.36-8.12l17.1-17.1a4.76,4.76,0,0,1,6.73,6.73l-17.1,17.1A4.79,4.79,0,0,1,21.85,43.71Z" fill="#b896ff"></path><path d="M39,26.61a4.78,4.78,0,0,1-3.36-1.39L18.49,8.12a4.76,4.76,0,0,1,6.73-6.73l17.1,17.1A4.76,4.76,0,0,1,39,26.61Z" fill="#ff6fc0"></path><path d="M21.85,43.71a4.78,4.78,0,0,1-3.36-1.39L1.39,25.22a4.76,4.76,0,0,1,6.73-6.73l17.1,17.1a4.76,4.76,0,0,1-3.37,8.12Z" fill="#6dc998"></path><path d="M4.75,26.61a4.76,4.76,0,0,1-3.36-8.12l17.1-17.1a4.76,4.76,0,0,1,6.73,6.73L8.12,25.22A4.79,4.79,0,0,1,4.75,26.61Z" fill="#4ebfe6"></path></g></g></svg>
