<svg data-v-4213c516="" version="1.0" xmlns="http://www.w3.org/2000/svg" xmlns:xlink="http://www.w3.org/1999/xlink" width="100%" height="100%" viewBox="0 0 340.000000 250.000000" preserveAspectRatio="xMidYMid meet" color-interpolation-filters="sRGB" class="el-tooltip" style="margin: auto;"><rect data-v-4213c516="" x="0" y="0" width="100%" height="100%" fill="#FFFFFF" fill-opacity="1"></rect> <rect data-v-4213c516="" x="0" y="0" width="100%" height="100%" fill="url(#watermark)" fill-opacity="1" class="watermarklayer"></rect> <g data-v-4213c516="" fill="#3D85C6" class="icon-text-wrapper icon-svg-group iconsvg" transform="translate(122.00499725341797,76.04000091552734)"><g class="iconsvg-imagesvg" transform="translate(17.99500274658203,0)"><rect fill="#3D85C6" fill-opacity="0" stroke-width="2" x="0" y="0" width="60" height="60" class="image-rect"></rect> <svg filter="url(#colors2704914971)" x="0" y="0" width="60" height="60" filtersec="colorsf6153055311" class="image-svg-svg"><svg version="1.1" id="Layer_1" xmlns="http://www.w3.org/2000/svg" xmlns:xlink="http://www.w3.org/1999/xlink" x="0px" y="0px" viewBox="0 0 512 512" style="enable-background:new 0 0 512 512;" xml:space="preserve"><g> <g> <g> <path d="M263.296,4.476c-4.715-1.707-9.877-1.707-14.592,0L26.965,85.116L256,172.369l229.035-87.253L263.296,4.476z"></path> <path d="M277.333,209.903v298.901l220.629-80.213c8.427-3.072,14.037-11.093,14.037-20.053V120.516L277.333,209.903z"></path> <path d="M0,408.538c0,8.96,5.611,16.981,14.037,20.053l220.629,80.213V209.903L0,120.516V408.538z"></path> </g> </g></g></svg></svg> <defs><filter id="colors2704914971"><feColorMatrix type="matrix" values="0 0 0 0 0.6328125  0 0 0 0 0.765625  0 0 0 0 0.78515625  0 0 0 1 0" class="icon-fecolormatrix"></feColorMatrix></filter> <filter id="colorsf6153055311"><feColorMatrix type="matrix" values="0 0 0 0 0.99609375  0 0 0 0 0.99609375  0 0 0 0 0.99609375  0 0 0 1 0" class="icon-fecolormatrix"></feColorMatrix></filter> <filter id="colorsb9039593040"><feColorMatrix type="matrix" values="0 0 0 0 0  0 0 0 0 0  0 0 0 0 0  0 0 0 1 0" class="icon-fecolormatrix"></feColorMatrix></filter></defs></g> <g transform="translate(0,67)"><g fill-rule="" class="tp-name iconsvg-namesvg"><g><path d="M2.02-21.29L6.48-21.29L6.48-28.17L11.21-28.17L11.21-21.29L16.88-21.29L16.88-16.56L11.21-16.56L11.21-6.30C11.56-5.85 12.11-5.26 12.51-4.77L16.70-4.77L16.70-0.04L10.35-0.04L6.48-4.63L6.48-16.56L2.02-16.56ZM35.64-21.15L23.80-21.15L20.92-17.77L20.92-11.52L23.76-8.14L31.27-8.14C31.50-7.96 31.63-7.79 31.77-7.65L31.77-5.22C31.63-5.04 31.36-4.81 31.18-4.59L21.87-4.59L21.87 0.14L33.21 0.14L36.49-3.38L36.49-9.72L32.98-12.82L25.92-12.82C25.78-12.96 25.70-13.14 25.65-13.18L25.65-16.06C25.70-16.16 25.83-16.34 25.92-16.43L35.64-16.43ZM45.22-0.14L45.22-30.78L40.54-30.78L40.54-0.14ZM64.03 0.14L68.94-5.63L68.94-15.16L64.03-21.15L54.18-21.15L49.27-15.16L49.27-5.63L54.18 0.14ZM56.34-4.59C55.71-5.31 55.35-5.80 54.77-6.43C54.45-6.75 54.27-7.02 53.95-7.38L53.95-13.54C54.77-14.49 55.58-15.48 56.38-16.43L61.83-16.43C62.73-15.25 63.31-14.58 64.17-13.59L64.26-13.50L64.26-7.33C63.81-6.75 63.45-6.39 63.05-5.98C62.64-5.54 62.33-5.08 61.88-4.59ZM93.33-21.15L93.33-7.74C92.61-6.66 91.89-5.63 91.13-4.59L87.89-4.59L87.89-21.15L83.20-21.15L83.20-4.59L79.92-4.59C79.11-5.76 78.48-6.61 77.67-7.69L77.67-21.15L72.99-21.15L72.99-6.25L77.45 0.14L93.60 0.14L98.01-6.25L98.01-21.15Z" transform="translate(-2.025, 30.779999999999998)"></path></g> <!----> <!----> <!----> <!----> <!----> <!----> <g fill="#ffffff" transform="translate(98.99000549316406,0)"></g></g> <!----></g></g></svg>
