<?xml version="1.0" encoding="UTF-8"?>
<svg version="1.0" xmlns="http://www.w3.org/2000/svg" xmlns:xlink="http://www.w3.org/1999/xlink" width="100%" height="100%" viewBox="0 0 340.000000 250.000000" preserveAspectRatio="xMidYMid meet" color-interpolation-filters="sRGB" class="el-tooltip" style="margin: auto;"><rect data-v-78ae61a2="" x="0" y="0" width="100%" height="100%" fill="#fff" fill-opacity="1"></rect> <rect data-v-78ae61a2="" x="0" y="0" width="100%" height="100%" fill="url(#watermark)" fill-opacity="1" class="watermarklayer"></rect> <g data-v-78ae61a2="" fill="#0083bc" class="icon-text-wrapper icon-svg-group iconsvg" transform="translate(77.66337585449219,99.7784366607666)"><g class="iconsvg-imagesvg" transform="translate(0,12.113706588745117)"><rect fill="#0083bc" fill-opacity="0" stroke-width="2" x="0" y="0" width="60" height="26.215713245408" class="image-rect"></rect> <svg x="0" y="0" width="60" height="26.215713245408" filtersec="colorsb6471459951" class="image-svg-svg"><svg xmlns="http://www.w3.org/2000/svg" viewBox="0 0 123.59 54"><g><g><path fill="#0083bc" d="M41.33 54h41.11L61.76 27H20.65l20.68 27z"></path><path fill="#0091d2" d="M20.68 27H61.8L41.12 0H0l20.68 27z"></path><path fill="#00a0e9" d="M82.22 54H41.11l20.68-27h41.11L82.22 54z"></path><path fill="#0090d0" d="M102.91 27H61.8L82.47 0h41.12l-20.68 27z"></path></g></g></svg></svg> <!----></g> <g transform="translate(67,0)"><g class="tp-name iconsvg-namesvg" transform="translate(0,0)"><g><path d="M11.34-0.22L2.11-25.70Q1.80-26.28 1.80-27L1.80-27Q1.80-27.77 2.16-28.39Q2.52-29.02 3.24-29.43L3.24-29.43Q3.96-29.74 4.46-29.74L4.46-29.74Q5.22-29.74 5.89-29.34Q6.57-28.93 6.93-28.21L6.93-28.21L14.45-6.48L21.73-28.26Q22.09-28.98 22.77-29.36Q23.45-29.74 24.21-29.74L24.21-29.74Q24.84-29.74 25.43-29.47L25.43-29.47Q26.10-29.07 26.48-28.42Q26.86-27.77 26.86-27L26.86-27Q26.86-26.41 26.59-25.79L26.59-25.79L17.50-0.22Q17.14 0.49 16.29 0.88Q15.43 1.26 14.45 1.26L14.45 1.26Q13.41 1.26 12.58 0.88Q11.74 0.49 11.34-0.22L11.34-0.22ZM22.59-27.90Q22.63-27.72 22.86-27.72L22.86-27.72Q22.99-27.72 23.36-27.92Q23.71-28.13 23.89-28.17L23.89-28.17Q24.07-28.21 24.39-28.24Q24.70-28.26 24.88-28.35Q25.06-28.44 25.02-28.62L25.02-28.62Q24.75-29.02 24.12-29.02L24.12-29.02Q23.89-29.02 23.45-28.93L23.45-28.93Q22.95-28.71 22.70-28.44Q22.45-28.17 22.59-27.90L22.59-27.90ZM2.92-26.55Q2.97-26.50 3.06-26.50L3.06-26.50Q3.24-26.50 3.42-26.93Q3.60-27.36 3.73-27.58L3.73-27.58Q3.78-27.72 3.98-27.97Q4.18-28.21 4.30-28.39Q4.41-28.57 4.23-28.66L4.23-28.66Q4.05-28.75 3.92-28.75L3.92-28.75Q3.46-28.75 2.88-27.95L2.88-27.95Q2.61-27.49 2.61-27.09L2.61-27.09Q2.61-26.68 2.92-26.55L2.92-26.55ZM49.50-2.88Q50.08-2.56 50.42-1.96Q50.76-1.35 50.76-0.67L50.76-0.67Q50.76-0.09 50.58 0.32L50.58 0.32Q50.27 0.99 49.66 1.37Q49.05 1.75 48.33 1.75L48.33 1.75Q47.79 1.75 47.25 1.48L47.25 1.48Q46.08 0.85 45.13-0.09L45.13-0.09Q43.88 0.63 42.39 1.01Q40.91 1.40 39.42 1.40L39.42 1.40Q37.39 1.40 35.64 0.72L35.64 0.72Q33.70-0.04 32.53-1.51Q31.36-2.97 31.32-4.86L31.32-4.86Q31.18-6.97 32.22-8.82L32.22-8.82Q33.30-10.57 34.96-11.65L34.96-11.65Q37.44-13.14 40.45-13.23L40.45-13.23Q42.88-13.23 45.09-12.42L45.09-12.42Q44.95-13.63 44.50-14.45L44.50-14.45Q43.65-16.11 41.40-16.61L41.40-16.61Q40.81-16.74 40.23-16.74L40.23-16.74Q38.79-16.74 37.62-16.02L37.62-16.02Q36.81-15.52 36.13-14.76Q35.46-13.99 35.10-13.05L35.10-13.05Q34.83-12.38 34.22-11.97Q33.62-11.56 32.89-11.56L32.89-11.56Q31.81-11.56 31.16-12.26Q30.51-12.96 30.51-13.95L30.51-13.95Q30.51-14.54 30.69-14.94L30.69-14.94Q31.36-16.65 32.53-18Q33.70-19.35 35.23-20.20L35.23-20.20Q37.66-21.55 40.32-21.55L40.32-21.55Q41.27-21.55 42.39-21.33L42.39-21.33Q46.75-20.43 48.83-16.70L48.83-16.70Q50.04-14.22 49.91-11.21L49.91-11.21Q49.91-8.37 48.64-5.49L48.64-5.49Q48.33-4.81 48.33-4.14L48.33-4.14Q48.33-3.78 48.42-3.65L48.42-3.65Q48.64-3.28 49.50-2.88L49.50-2.88ZM32.17-14.40Q32.22-14.58 32.31-14.85Q32.40-15.12 32.40-15.25Q32.40-15.39 32.22-15.39L32.22-15.39L32.13-15.39Q31.86-15.39 31.68-15.12Q31.50-14.85 31.41-14.45L31.41-14.45L31.36-14.08Q31.36-13.37 31.86-13.32L31.86-13.32L31.95-13.32Q32.09-13.32 32.11-13.48Q32.13-13.63 32.13-13.77Q32.13-13.90 32.13-13.99L32.13-13.99Q32.13-14.26 32.17-14.40L32.17-14.40ZM40.68-3.55Q42.57-3.92 43.47-4.77L43.47-4.77L43.56-4.86Q43.60-5.94 44.23-7.38L44.23-7.38L44.28-7.47L44.23-7.47Q42.61-8.41 40.72-8.41L40.72-8.41Q38.92-8.41 37.53-7.56L37.53-7.56Q36.13-6.71 36.13-5.31L36.13-5.31Q36.13-4.68 36.52-4.30Q36.90-3.92 37.35-3.78L37.35-3.78Q38.30-3.42 39.38-3.42L39.38-3.42Q40.00-3.42 40.68-3.55L40.68-3.55ZM56.79 1.57L56.75 1.57Q55.71 1.53 55.01 0.85Q54.32 0.18 54.36-0.77L54.36-0.77L55.58-30.73Q55.62-31.63 56.34-32.27Q57.06-32.89 58.01-32.89L58.01-32.89Q59.09-32.89 59.80-32.22Q60.53-31.54 60.48-30.55L60.48-30.55L59.27-0.54Q59.22 0.32 58.50 0.94Q57.78 1.57 56.79 1.57L56.79 1.57ZM56.52-30.73Q56.57-30.64 56.70-30.64L56.70-30.64Q56.93-30.64 57.20-30.94Q57.47-31.23 57.55-31.32L57.55-31.32Q57.69-31.36 57.96-31.43Q58.23-31.50 58.37-31.61Q58.50-31.72 58.41-31.90L58.41-31.90Q58.19-32.17 57.87-32.17L57.87-32.17Q57.51-32.17 57.06-31.86L57.06-31.86Q56.70-31.63 56.52-31.30Q56.34-30.96 56.52-30.73L56.52-30.73ZM72 0.14L64.53-17.64Q64.08-18.36 64.08-19.21L64.08-19.21Q64.08-20.02 64.48-20.75Q64.89-21.46 65.61-21.91L65.61-21.91Q66.38-22.32 67.14-22.32L67.14-22.32Q67.95-22.32 68.69-21.89Q69.44-21.46 69.89-20.70L69.89-20.70L75.38-6.75L80.23-20.52Q80.69-21.15 81.36-21.49Q82.03-21.82 82.75-21.82L82.75-21.82Q83.79-21.82 84.69-21.20L84.69-21.20Q85.86-20.25 85.86-18.77L85.86-18.77Q85.86-17.68 85.28-16.83L85.28-16.83L78.12 0.36Q77.58 1.17 76.77 1.57Q75.96 1.98 75.11 1.98L75.11 1.98Q74.16 1.98 73.33 1.51Q72.50 1.03 72 0.14L72 0.14ZM65.56-19.44Q65.70-19.30 65.79-19.30L65.79-19.30Q65.97-19.30 66.22-19.60Q66.47-19.89 66.64-20.02L66.64-20.02Q66.87-20.16 67.12-20.25Q67.36-20.34 67.52-20.47Q67.68-20.61 67.55-20.75L67.55-20.75Q67.36-21.02 66.96-21.02L66.96-21.02Q66.56-21.02 66.11-20.75L66.11-20.75Q65.70-20.47 65.52-20.07Q65.34-19.66 65.56-19.44L65.56-19.44ZM81.31-18.90Q81.41-18.77 81.50-18.77L81.50-18.77Q81.67-18.77 81.94-19.08Q82.22-19.39 82.39-19.53L82.39-19.53Q82.58-19.62 82.87-19.75Q83.16-19.89 83.30-20.00Q83.43-20.11 83.30-20.29L83.30-20.29Q83.12-20.52 82.80-20.52L82.80-20.52Q82.44-20.52 81.86-20.16L81.86-20.16Q81.41-19.84 81.25-19.51Q81.09-19.17 81.31-18.90L81.31-18.90ZM108.50-2.88Q109.08-2.56 109.42-1.96Q109.75-1.35 109.75-0.67L109.75-0.67Q109.75-0.09 109.57 0.32L109.57 0.32Q109.26 0.99 108.65 1.37Q108.04 1.75 107.32 1.75L107.32 1.75Q106.78 1.75 106.25 1.48L106.25 1.48Q105.07 0.85 104.13-0.09L104.13-0.09Q102.87 0.63 101.38 1.01Q99.90 1.40 98.41 1.40L98.41 1.40Q96.39 1.40 94.63 0.72L94.63 0.72Q92.70-0.04 91.53-1.51Q90.36-2.97 90.31-4.86L90.31-4.86Q90.18-6.97 91.22-8.82L91.22-8.82Q92.30-10.57 93.96-11.65L93.96-11.65Q96.44-13.14 99.45-13.23L99.45-13.23Q101.88-13.23 104.08-12.42L104.08-12.42Q103.95-13.63 103.50-14.45L103.50-14.45Q102.64-16.11 100.39-16.61L100.39-16.61Q99.81-16.74 99.22-16.74L99.22-16.74Q97.78-16.74 96.61-16.02L96.61-16.02Q95.80-15.52 95.13-14.76Q94.45-13.99 94.09-13.05L94.09-13.05Q93.83-12.38 93.22-11.97Q92.61-11.56 91.89-11.56L91.89-11.56Q90.81-11.56 90.16-12.26Q89.50-12.96 89.50-13.95L89.50-13.95Q89.50-14.54 89.69-14.94L89.69-14.94Q90.36-16.65 91.53-18Q92.70-19.35 94.23-20.20L94.23-20.20Q96.66-21.55 99.31-21.55L99.31-21.55Q100.26-21.55 101.38-21.33L101.38-21.33Q105.75-20.43 107.82-16.70L107.82-16.70Q109.03-14.22 108.90-11.21L108.90-11.21Q108.90-8.37 107.64-5.49L107.64-5.49Q107.32-4.81 107.32-4.14L107.32-4.14Q107.32-3.78 107.41-3.65L107.41-3.65Q107.64-3.28 108.50-2.88L108.50-2.88ZM91.17-14.40Q91.22-14.58 91.30-14.85Q91.39-15.12 91.39-15.25Q91.39-15.39 91.22-15.39L91.22-15.39L91.13-15.39Q90.85-15.39 90.67-15.12Q90.49-14.85 90.41-14.45L90.41-14.45L90.36-14.08Q90.36-13.37 90.85-13.32L90.85-13.32L90.94-13.32Q91.08-13.32 91.10-13.48Q91.13-13.63 91.13-13.77Q91.13-13.90 91.13-13.99L91.13-13.99Q91.13-14.26 91.17-14.40L91.17-14.40ZM99.67-3.55Q101.56-3.92 102.47-4.77L102.47-4.77L102.55-4.86Q102.60-5.94 103.23-7.38L103.23-7.38L103.27-7.47L103.23-7.47Q101.61-8.41 99.72-8.41L99.72-8.41Q97.92-8.41 96.52-7.56L96.52-7.56Q95.13-6.71 95.13-5.31L95.13-5.31Q95.13-4.68 95.51-4.30Q95.89-3.92 96.34-3.78L96.34-3.78Q97.29-3.42 98.37-3.42L98.37-3.42Q99-3.42 99.67-3.55L99.67-3.55ZM115.78 1.57L115.74 1.57Q114.70 1.53 114.01 0.85Q113.31 0.18 113.35-0.77L113.35-0.77L114.57-30.73Q114.61-31.63 115.33-32.27Q116.05-32.89 117.00-32.89L117.00-32.89Q118.08-32.89 118.80-32.22Q119.52-31.54 119.47-30.55L119.47-30.55L118.26-0.54Q118.21 0.32 117.49 0.94Q116.77 1.57 115.78 1.57L115.78 1.57ZM115.51-30.73Q115.56-30.64 115.69-30.64L115.69-30.64Q115.92-30.64 116.19-30.94Q116.46-31.23 116.55-31.32L116.55-31.32Q116.68-31.36 116.95-31.43Q117.22-31.50 117.36-31.61Q117.49-31.72 117.40-31.90L117.40-31.90Q117.18-32.17 116.86-32.17L116.86-32.17Q116.50-32.17 116.05-31.86L116.05-31.86Q115.69-31.63 115.51-31.30Q115.33-30.96 115.51-30.73L115.51-30.73Z" transform="translate(-1.8, 32.895)"></path></g> <!----> <!----> <!----> <!----> <!----> <!----> <!----></g> <g class="tp-slogan iconsvg-slogansvg" fill="#333" transform="translate(36.476619720458984,41.869998931884766)"><!----> <!----> <!----> <g><path d="M1.55-8.58L3.98-1.27L6.47-8.58L7.78-8.58L4.64 0L3.38 0L0.23-8.58L1.55-8.58ZM14.53 0L13.69-2.48L10.22-2.48L9.33 0L8.16 0L11.39-8.58L12.70-8.58L15.80 0L14.53 0ZM11.95-7.31L10.59-3.52L13.27-3.52L12-7.31L11.95-7.31ZM16.83-8.58L18-8.58L18-1.03L22.36-1.03L22.36 0L16.83 0L16.83-8.58ZM24.14-8.58L26.58-1.27L29.06-8.58L30.38-8.58L27.23 0L25.97 0L22.83-8.58L24.14-8.58ZM37.13 0L36.28-2.48L32.81-2.48L31.92 0L30.75 0L33.98-8.58L35.30-8.58L38.39 0L37.13 0ZM34.55-7.31L33.19-3.52L35.86-3.52L34.59-7.31L34.55-7.31ZM39.42-8.58L40.59-8.58L40.59-1.03L44.95-1.03L44.95 0L39.42 0L39.42-8.58Z" transform="translate(-0.234375, 8.578125)"></path></g></g></g></g></svg>
