<?xml version="1.0" encoding="UTF-8"?>
<svg width="143px" height="164px" viewBox="0 0 143 164" version="1.1" xmlns="http://www.w3.org/2000/svg" xmlns:xlink="http://www.w3.org/1999/xlink">
    <!-- Generator: Sketch 55.2 (78181) - https://sketchapp.com -->
    <title>1024桌面icon</title>
    <desc>Created with Sketch.</desc>
    <defs>
        <linearGradient x1="-0.700121109%" y1="49.9983974%" x2="100.322557%" y2="49.9983974%" id="linearGradient-1">
            <stop stop-color="#00D2FF" offset="0%"></stop>
            <stop stop-color="#00AAFF" offset="100%"></stop>
        </linearGradient>
        <linearGradient x1="-9.27367056%" y1="38.739125%" x2="100.95655%" y2="57.3464752%" id="linearGradient-2">
            <stop stop-color="#00D2FF" offset="0%"></stop>
            <stop stop-color="#00AAFF" offset="100%"></stop>
        </linearGradient>
        <linearGradient x1="0.00627896808%" y1="50.016579%" x2="99.6611277%" y2="50.016579%" id="linearGradient-3">
            <stop stop-color="#FF4B7D" offset="0%"></stop>
            <stop stop-color="#FF2D64" offset="100%"></stop>
        </linearGradient>
        <path d="M20.194638,3.35994868 L20.194638,16.7149524 C20.194638,20.4026878 17.204736,23.3923186 13.5172716,23.3923186 L13.5172716,23.3923186 C9.82926535,23.3923186 6.83963431,20.4026878 6.83963431,16.7149524 L6.83963431,16.7149524 L6.83963431,3.35994868 C6.83963431,1.51621647 5.3450897,0.021400947 3.50108658,0.021400947 L3.50108658,0.021400947 C1.65708346,0.021400947 0.16226794,1.51621647 0.16226794,3.35994868 L0.16226794,3.35994868 L0.16226794,16.7149524 C0.16226794,24.090423 6.14153001,30.0696852 13.5172716,30.0696852 L13.5172716,30.0696852 C20.8927424,30.0696852 26.8717335,24.090423 26.8717335,16.7149524 L26.8717335,16.7149524 L26.8717335,3.35994868 C26.8717335,1.51621647 25.376918,0.021400947 23.5331858,0.021400947 L23.5331858,0.021400947 C21.6891825,0.021400947 20.194638,1.51621647 20.194638,3.35994868" id="path-4"></path>
        <linearGradient x1="50.0003437%" y1="0.106648966%" x2="50.0003437%" y2="99.0842333%" id="linearGradient-6">
            <stop stop-color="#00D1FF" offset="0%"></stop>
            <stop stop-color="#00AAFF" offset="100%"></stop>
        </linearGradient>
        <path d="M14.3971485,0.00704334967 C13.5495085,0.0124613109 12.7040356,0.338351681 12.0574019,0.984985362 L12.0574019,0.984985362 L1.48506319,11.5570532 C-0.426935348,13.4693226 -0.426935348,16.5694801 1.48506319,18.4817495 L1.48506319,18.4817495 L12.0484623,29.0451487 C12.2933542,29.2897695 12.5691284,29.5070298 12.8782231,29.6619836 L12.8782231,29.6619836 C14.2440911,30.3476264 15.7901064,30.0431372 16.7791552,29.0540882 L16.7791552,29.0540882 C17.7684749,28.0650395 18.0726934,26.519295 17.3875923,25.1534271 L17.3875923,25.1534271 C17.2326385,24.8446032 17.0159201,24.568829 16.7712991,24.324479 L16.7712991,24.324479 L7.46703424,15.0194014 L16.6778393,5.8083254 C17.9106964,4.5751974 18.1106192,2.57244802 16.9999371,1.22798092 L16.9999371,1.22798092 C16.3324443,0.419891999 15.3867391,0.0130031071 14.4391377,0.00704334967 L14.4391377,0.00704334967 L14.3971485,0.00704334967 Z" id="path-7"></path>
        <linearGradient x1="50.0001444%" y1="0.154551212%" x2="50.0001444%" y2="99.2093603%" id="linearGradient-9">
            <stop stop-color="#00D1FF" offset="0%"></stop>
            <stop stop-color="#00AAFF" offset="100%"></stop>
        </linearGradient>
        <path d="M0.10348306,3.35290533 L0.10348306,26.7235522 C0.10348306,28.5678262 1.59829858,30.062371 3.44230169,30.062371 L3.44230169,30.062371 C5.28576302,30.062371 6.78084945,28.5678262 6.78084945,26.7235522 L6.78084945,26.7235522 L6.78084945,3.35290533 C6.78084945,1.50890222 5.28576302,0.0140866993 3.44230169,0.0140866993 L3.44230169,0.0140866993 C1.59829858,0.0140866993 0.10348306,1.50890222 0.10348306,3.35290533" id="path-10"></path>
        <linearGradient x1="49.99906%" y1="0.107109474%" x2="49.99906%" y2="99.0846938%" id="linearGradient-12">
            <stop stop-color="#00D1FF" offset="0%"></stop>
            <stop stop-color="#00AAFF" offset="100%"></stop>
        </linearGradient>
        <path d="M20.1569832,3.35290533 L20.1569832,16.7076381 C20.1569832,20.3953735 17.1673521,23.3852754 13.4796168,23.3852754 L13.4796168,23.3852754 C9.79188143,23.3852754 6.80225039,20.3953735 6.80225039,16.7076381 L6.80225039,16.7076381 L6.80225039,3.35290533 C6.80225039,1.50890222 5.30743488,0.0140866993 3.46343175,0.0140866993 L3.46343175,0.0140866993 C1.61969952,0.0140866993 0.124884007,1.50890222 0.124884007,3.35290533 L0.124884007,3.35290533 L0.124884007,16.7076381 C0.124884007,24.0833798 6.10387518,30.062371 13.4796168,30.062371 L13.4796168,30.062371 C20.8553584,30.062371 26.8343495,24.0833798 26.8343495,16.7076381 L26.8343495,16.7076381 L26.8343495,3.35290533 C26.8343495,1.50890222 25.339534,0.0140866993 23.4958017,0.0140866993 L23.4958017,0.0140866993 C21.6517987,0.0140866993 20.1569832,1.50890222 20.1569832,3.35290533" id="path-13"></path>
        <linearGradient x1="50.0000955%" y1="0.213818213%" x2="50.0000955%" y2="100.213795%" id="linearGradient-15">
            <stop stop-color="#FF4B7C" offset="0%"></stop>
            <stop stop-color="#FF2D64" offset="100%"></stop>
        </linearGradient>
        <path d="M0.190170441,13.3690904 L0.190170441,16.7076381 C0.190170441,24.0833798 6.16943251,30.062371 13.5451741,30.062371 L13.5451741,30.062371 C20.9206449,30.062371 26.8999068,24.0833798 26.8999068,16.7076381 L26.8999068,16.7076381 L26.8999068,13.3690904 C26.8999068,5.99334877 20.9206449,0.0140866993 13.5451741,0.0140866993 L13.5451741,0.0140866993 C6.16943251,0.0140866993 0.190170441,5.99334877 0.190170441,13.3690904 M6.86780772,16.7076381 L6.86780772,13.3690904 C6.86780772,9.68135501 9.85716785,6.69172397 13.5451741,6.69172397 L13.5451741,6.69172397 C17.2329095,6.69172397 20.2222695,9.68135501 20.2222695,13.3690904 L20.2222695,13.3690904 L20.2222695,16.7076381 C20.2222695,20.3956443 17.2329095,23.3852754 13.5451741,23.3852754 L13.5451741,23.3852754 C9.85716785,23.3852754 6.86780772,20.3956443 6.86780772,16.7076381" id="path-16"></path>
        <linearGradient x1="49.9999417%" y1="0.213818213%" x2="49.9999417%" y2="100.213789%" id="linearGradient-18">
            <stop stop-color="#FF4B7C" offset="0%"></stop>
            <stop stop-color="#FF2D64" offset="100%"></stop>
        </linearGradient>
        <path d="M2.47682101,0.124071313 C1.32089896,0.433436903 0.419079305,1.33796554 0.1118809,2.49442937 L0.1118809,2.49442937 C-0.195046606,3.65089321 0.139783401,4.88320851 0.989590627,5.72570148 L0.989590627,5.72570148 L10.8638251,15.6256712 L10.8638251,26.7235522 C10.8638251,28.5678262 12.3586406,30.062371 14.2026437,30.062371 L14.2026437,30.062371 C16.0463759,30.062371 17.5411914,28.5678262 17.5411914,26.7235522 L17.5411914,26.7235522 L17.5411914,15.591809 L27.3821055,5.72570148 C28.6886468,4.42214 28.6910849,2.30615522 27.3875234,0.999342958 L27.3875234,0.999342958 C26.0836909,-0.307198405 23.9679771,-0.309636488 22.6614358,0.994195895 L22.6614358,0.994195895 L14.1861189,9.49199727 L5.7102603,0.994195895 C5.07473343,0.355960055 4.21896645,0.0100232284 3.34152762,0.0100232284 L3.34152762,0.0100232284 C3.05329208,0.0100232284 2.76261845,0.0474071613 2.47682101,0.124071313" id="path-19"></path>
        <linearGradient x1="50.0000773%" y1="0.227310612%" x2="50.0000773%" y2="100.227899%" id="linearGradient-21">
            <stop stop-color="#FF4B7C" offset="0%"></stop>
            <stop stop-color="#FF2D64" offset="100%"></stop>
        </linearGradient>
    </defs>
    <g id="页面1" stroke="none" stroke-width="1" fill="none" fill-rule="evenodd">
        <g id="1024桌面icon" transform="translate(-26.000000, -15.000000)">
            <g id="图标logo" transform="translate(51.225586, 15.805664)" fill-rule="nonzero">
                <path d="M11.6392281,73.9774627 C0.614658217,80.3416137 -3.16335796,94.4379571 3.20079265,105.462527 C9.56494327,116.487097 23.6612865,120.265114 34.6858568,113.900964 L84.4563944,85.1672766 L38.3631369,58.5574601 L11.6392281,73.9774627 Z" id="路径" fill="url(#linearGradient-1)"></path>
                <polygon id="路径" fill="url(#linearGradient-2)" style="mix-blend-mode: multiply;" points="84.4563944 85.1672766 38.3631369 58.5486837 30.3240234 63.1913595"></polygon>
                <path d="M84.4563944,31.9388672 L34.6858568,3.18762737 C23.6612865,-3.17652281 9.56494327,0.601493932 3.20079265,11.6260641 C-3.16335796,22.6506342 0.614658217,36.7469774 11.6392281,43.1111286 L38.3631369,58.5399074 L84.4563944,85.1497239 L84.4563944,85.1497239 C104.940336,73.3367909 104.940336,43.7693528 84.4563944,31.9388672 Z" id="路径" fill="url(#linearGradient-3)"></path>
            </g>
            <g id="字母logo" transform="translate(26.660156, 147.895778)">
                <g id="编组" transform="translate(114.589881, 0.073425)">
                    <g id="Fill-1-Clipped">
                        <mask id="mask-5" fill="white">
                            <use xlink:href="#path-4"></use>
                        </mask>
                        <g id="path-4"></g>
                        <path d="M20.194638,3.35994868 L20.194638,16.7149524 C20.194638,20.4026878 17.204736,23.3923186 13.5172716,23.3923186 L13.5172716,23.3923186 C9.82926535,23.3923186 6.83963431,20.4026878 6.83963431,16.7149524 L6.83963431,16.7149524 L6.83963431,3.35994868 C6.83963431,1.51621647 5.3450897,0.021400947 3.50108658,0.021400947 L3.50108658,0.021400947 C1.65708346,0.021400947 0.16226794,1.51621647 0.16226794,3.35994868 L0.16226794,3.35994868 L0.16226794,16.7149524 C0.16226794,24.090423 6.14153001,30.0696852 13.5172716,30.0696852 L13.5172716,30.0696852 C20.8927424,30.0696852 26.8717335,24.090423 26.8717335,16.7149524 L26.8717335,16.7149524 L26.8717335,3.35994868 C26.8717335,1.51621647 25.376918,0.021400947 23.5331858,0.021400947 L23.5331858,0.021400947 C21.6891825,0.021400947 20.194638,1.51621647 20.194638,3.35994868" id="Fill-1" fill="url(#linearGradient-6)" fill-rule="nonzero" mask="url(#mask-5)"></path>
                    </g>
                </g>
                <g id="编组" transform="translate(94.814323, 0.073425)">
                    <g id="Fill-3-Clipped">
                        <mask id="mask-8" fill="white">
                            <use xlink:href="#path-7"></use>
                        </mask>
                        <g id="path-7"></g>
                        <path d="M14.3971485,0.00704334967 C13.5495085,0.0124613109 12.7040356,0.338351681 12.0574019,0.984985362 L12.0574019,0.984985362 L1.48506319,11.5570532 C-0.426935348,13.4693226 -0.426935348,16.5694801 1.48506319,18.4817495 L1.48506319,18.4817495 L12.0484623,29.0451487 C12.2933542,29.2897695 12.5691284,29.5070298 12.8782231,29.6619836 L12.8782231,29.6619836 C14.2440911,30.3476264 15.7901064,30.0431372 16.7791552,29.0540882 L16.7791552,29.0540882 C17.7684749,28.0650395 18.0726934,26.519295 17.3875923,25.1534271 L17.3875923,25.1534271 C17.2326385,24.8446032 17.0159201,24.568829 16.7712991,24.324479 L16.7712991,24.324479 L7.46703424,15.0194014 L16.6778393,5.8083254 C17.9106964,4.5751974 18.1106192,2.57244802 16.9999371,1.22798092 L16.9999371,1.22798092 C16.3324443,0.419891999 15.3867391,0.0130031071 14.4391377,0.00704334967 L14.4391377,0.00704334967 L14.3971485,0.00704334967 Z" id="Fill-3" fill="url(#linearGradient-9)" fill-rule="nonzero" mask="url(#mask-8)"></path>
                    </g>
                </g>
                <g id="编组" transform="translate(86.687380, 0.073425)">
                    <g id="Fill-5-Clipped">
                        <mask id="mask-11" fill="white">
                            <use xlink:href="#path-10"></use>
                        </mask>
                        <g id="path-10"></g>
                        <path d="M0.10348306,3.35290533 L0.10348306,26.7235522 C0.10348306,28.5678262 1.59829858,30.062371 3.44230169,30.062371 L3.44230169,30.062371 C5.28576302,30.062371 6.78084945,28.5678262 6.78084945,26.7235522 L6.78084945,26.7235522 L6.78084945,3.35290533 C6.78084945,1.50890222 5.28576302,0.0140866993 3.44230169,0.0140866993 L3.44230169,0.0140866993 C1.59829858,0.0140866993 0.10348306,1.50890222 0.10348306,3.35290533" id="Fill-5" fill="url(#linearGradient-12)" fill-rule="nonzero" mask="url(#mask-11)"></path>
                    </g>
                </g>
                <g id="编组" transform="translate(56.617695, 0.073425)">
                    <g id="Fill-7-Clipped">
                        <mask id="mask-14" fill="white">
                            <use xlink:href="#path-13"></use>
                        </mask>
                        <g id="path-13"></g>
                        <path d="M20.1569832,3.35290533 L20.1569832,16.7076381 C20.1569832,20.3953735 17.1673521,23.3852754 13.4796168,23.3852754 L13.4796168,23.3852754 C9.79188143,23.3852754 6.80225039,20.3953735 6.80225039,16.7076381 L6.80225039,16.7076381 L6.80225039,3.35290533 C6.80225039,1.50890222 5.30743488,0.0140866993 3.46343175,0.0140866993 L3.46343175,0.0140866993 C1.61969952,0.0140866993 0.124884007,1.50890222 0.124884007,3.35290533 L0.124884007,3.35290533 L0.124884007,16.7076381 C0.124884007,24.0833798 6.10387518,30.062371 13.4796168,30.062371 L13.4796168,30.062371 C20.8553584,30.062371 26.8343495,24.0833798 26.8343495,16.7076381 L26.8343495,16.7076381 L26.8343495,3.35290533 C26.8343495,1.50890222 25.339534,0.0140866993 23.4958017,0.0140866993 L23.4958017,0.0140866993 C21.6517987,0.0140866993 20.1569832,1.50890222 20.1569832,3.35290533" id="Fill-7" fill="url(#linearGradient-15)" fill-rule="nonzero" mask="url(#mask-14)"></path>
                    </g>
                </g>
                <g id="编组" transform="translate(28.173399, 0.073425)">
                    <g id="Fill-9-Clipped">
                        <mask id="mask-17" fill="white">
                            <use xlink:href="#path-16"></use>
                        </mask>
                        <g id="path-16"></g>
                        <path d="M0.190170441,13.3690904 L0.190170441,16.7076381 C0.190170441,24.0833798 6.16943251,30.062371 13.5451741,30.062371 L13.5451741,30.062371 C20.9206449,30.062371 26.8999068,24.0833798 26.8999068,16.7076381 L26.8999068,16.7076381 L26.8999068,13.3690904 C26.8999068,5.99334877 20.9206449,0.0140866993 13.5451741,0.0140866993 L13.5451741,0.0140866993 C6.16943251,0.0140866993 0.190170441,5.99334877 0.190170441,13.3690904 M6.86780772,16.7076381 L6.86780772,13.3690904 C6.86780772,9.68135501 9.85716785,6.69172397 13.5451741,6.69172397 L13.5451741,6.69172397 C17.2329095,6.69172397 20.2222695,9.68135501 20.2222695,13.3690904 L20.2222695,13.3690904 L20.2222695,16.7076381 C20.2222695,20.3956443 17.2329095,23.3852754 13.5451741,23.3852754 L13.5451741,23.3852754 C9.85716785,23.3852754 6.86780772,20.3956443 6.86780772,16.7076381" id="Fill-9" fill="url(#linearGradient-18)" fill-rule="nonzero" mask="url(#mask-17)"></path>
                    </g>
                </g>
                <g id="编组" transform="translate(0.000000, 0.073425)">
                    <g id="Fill-11-Clipped">
                        <mask id="mask-20" fill="white">
                            <use xlink:href="#path-19"></use>
                        </mask>
                        <g id="path-19"></g>
                        <path d="M2.47682101,0.124071313 C1.32089896,0.433436903 0.419079305,1.33796554 0.1118809,2.49442937 L0.1118809,2.49442937 C-0.195046606,3.65089321 0.139783401,4.88320851 0.989590627,5.72570148 L0.989590627,5.72570148 L10.8638251,15.6256712 L10.8638251,26.7235522 C10.8638251,28.5678262 12.3586406,30.062371 14.2026437,30.062371 L14.2026437,30.062371 C16.0463759,30.062371 17.5411914,28.5678262 17.5411914,26.7235522 L17.5411914,26.7235522 L17.5411914,15.591809 L27.3821055,5.72570148 C28.6886468,4.42214 28.6910849,2.30615522 27.3875234,0.999342958 L27.3875234,0.999342958 C26.0836909,-0.307198405 23.9679771,-0.309636488 22.6614358,0.994195895 L22.6614358,0.994195895 L14.1861189,9.49199727 L5.7102603,0.994195895 C5.07473343,0.355960055 4.21896645,0.0100232284 3.34152762,0.0100232284 L3.34152762,0.0100232284 C3.05329208,0.0100232284 2.76261845,0.0474071613 2.47682101,0.124071313" id="Fill-11" fill="url(#linearGradient-21)" fill-rule="nonzero" mask="url(#mask-20)"></path>
                    </g>
                </g>
            </g>
        </g>
    </g>
</svg>